<svg width="376" height="48" viewBox="0 0 376 48" fill="none" xmlns="http://www.w3.org/2000/svg">
<mask id="path-1-outside-1_6_30" maskUnits="userSpaceOnUse" x="0" y="0" width="376" height="48" fill="black">
<rect fill="white" width="376" height="48"/>
<path d="M19.701 30.942H17.25V42H5.28V6.603H19.074C23.748 6.603 27.149 7.553 29.277 9.453C31.405 11.353 32.469 14.488 32.469 18.858C32.469 23.228 31.443 26.344 29.391 28.206C27.339 30.03 24.109 30.942 19.701 30.942ZM20.271 22.677C20.613 22.069 20.784 21.043 20.784 19.599C20.784 18.155 20.594 17.129 20.214 16.521C19.872 15.913 19.207 15.609 18.219 15.609H17.022V23.589H18.504C19.378 23.589 19.967 23.285 20.271 22.677ZM33.5523 28.263C33.5523 23.247 34.6543 19.618 36.8583 17.376C39.1003 15.134 42.5773 14.013 47.2893 14.013C52.0393 14.013 55.4973 15.115 57.6633 17.319C59.8293 19.523 60.9123 23.152 60.9123 28.206C60.9123 33.222 59.8483 36.87 57.7203 39.15C55.6303 41.43 52.1723 42.57 47.3463 42.57C42.5583 42.57 39.0623 41.43 36.8583 39.15C34.6543 36.87 33.5523 33.241 33.5523 28.263ZM48.7713 23.418C48.5813 22.734 48.0873 22.392 47.2893 22.392C46.4913 22.392 45.9783 22.734 45.7503 23.418C45.5603 24.064 45.4653 25.47 45.4653 27.636V29.004C45.4653 31.436 45.5603 33.013 45.7503 33.735C45.9783 34.419 46.4913 34.761 47.2893 34.761C48.0873 34.761 48.5813 34.419 48.7713 33.735C48.9993 33.013 49.1133 31.531 49.1133 29.289V27.693C49.1133 25.489 48.9993 24.064 48.7713 23.418ZM91.2579 42H78.4329L75.1269 33.051H74.8989V42H63.2139V5.463H74.8989V24.273H75.1269L79.1169 14.697H91.4859L85.1019 28.89C85.8239 30.448 86.8689 32.709 88.2369 35.673C89.6429 38.599 90.6499 40.708 91.2579 42ZM105.239 23.19C104.441 23.19 103.89 23.437 103.586 23.931C103.282 24.425 103.13 25.185 103.13 26.211H107.234V25.299C107.234 23.893 106.569 23.19 105.239 23.19ZM91.3882 28.263C91.3882 23.741 92.5662 20.245 94.9222 17.775C97.3162 15.267 100.812 14.013 105.41 14.013C110.046 14.013 113.314 14.963 115.214 16.863C117.152 18.763 118.121 21.48 118.121 25.014C118.121 26.42 117.969 28.548 117.665 31.398H103.358C103.51 33.45 104.764 34.476 107.12 34.476C108.222 34.476 111.11 34.077 115.784 33.279L116.753 40.974C112.725 42.038 108.963 42.57 105.467 42.57C100.907 42.57 97.4112 41.316 94.9792 38.808C92.5852 36.3 91.3882 32.785 91.3882 28.263ZM154.578 14.013C159.822 14.013 162.444 16.597 162.444 21.765V42H150.417V24.33C150.417 23.722 150.189 23.418 149.733 23.418C149.125 23.418 148.365 23.608 147.453 23.988V42H135.426V24.33C135.426 23.722 135.179 23.418 134.685 23.418C134.001 23.418 133.241 23.608 132.405 23.988V42H120.549V14.697H131.322L131.664 16.464C134.21 14.83 136.965 14.013 139.929 14.013C142.893 14.013 145.021 14.925 146.313 16.749C148.897 14.925 151.652 14.013 154.578 14.013ZM164.754 28.263C164.754 23.247 165.856 19.618 168.06 17.376C170.302 15.134 173.779 14.013 178.491 14.013C183.241 14.013 186.699 15.115 188.865 17.319C191.031 19.523 192.114 23.152 192.114 28.206C192.114 33.222 191.05 36.87 188.922 39.15C186.832 41.43 183.374 42.57 178.548 42.57C173.76 42.57 170.264 41.43 168.06 39.15C165.856 36.87 164.754 33.241 164.754 28.263ZM179.973 23.418C179.783 22.734 179.289 22.392 178.491 22.392C177.693 22.392 177.18 22.734 176.952 23.418C176.762 24.064 176.667 25.47 176.667 27.636V29.004C176.667 31.436 176.762 33.013 176.952 33.735C177.18 34.419 177.693 34.761 178.491 34.761C179.289 34.761 179.783 34.419 179.973 33.735C180.201 33.013 180.315 31.531 180.315 29.289V27.693C180.315 25.489 180.201 24.064 179.973 23.418ZM213.34 14.013C218.66 14.013 221.32 16.597 221.32 21.765V42H209.293V24.33C209.293 23.722 208.97 23.418 208.324 23.418C207.716 23.418 207.032 23.608 206.272 23.988V42H194.416V14.697H205.189L205.531 16.464C207.925 14.83 210.528 14.013 213.34 14.013ZM248.046 42H236.019V6.603H248.046V42ZM271.037 14.013C276.357 14.013 279.017 16.597 279.017 21.765V42H266.99V24.33C266.99 23.722 266.667 23.418 266.021 23.418C265.413 23.418 264.729 23.608 263.969 23.988V42H252.113V14.697H262.886L263.228 16.464C265.622 14.83 268.225 14.013 271.037 14.013ZM304.829 42.57C301.865 42.57 299.832 41.829 298.73 40.347H298.502C296.754 41.829 294.683 42.57 292.289 42.57C288.337 42.57 285.525 41.316 283.853 38.808C282.181 36.3 281.345 32.747 281.345 28.149C281.345 23.551 282.257 20.055 284.081 17.661C285.943 15.229 288.603 14.013 292.061 14.013C294.037 14.013 295.633 14.317 296.849 14.925V5.463H308.306V33.45C308.306 33.944 308.477 34.286 308.819 34.476C309.199 34.666 309.845 34.761 310.757 34.761L309.731 42.342C307.755 42.494 306.121 42.57 304.829 42.57ZM295.025 22.677C294.265 22.677 293.771 23.114 293.543 23.988C293.353 24.862 293.258 26.382 293.258 28.548C293.258 30.714 293.353 32.234 293.543 33.108C293.733 33.944 294.208 34.362 294.968 34.362C295.766 34.362 296.393 34.286 296.849 34.134V23.076C296.203 22.81 295.595 22.677 295.025 22.677ZM325.895 23.19C325.097 23.19 324.546 23.437 324.242 23.931C323.938 24.425 323.786 25.185 323.786 26.211H327.89V25.299C327.89 23.893 327.225 23.19 325.895 23.19ZM312.044 28.263C312.044 23.741 313.222 20.245 315.578 17.775C317.972 15.267 321.468 14.013 326.066 14.013C330.702 14.013 333.97 14.963 335.87 16.863C337.808 18.763 338.777 21.48 338.777 25.014C338.777 26.42 338.625 28.548 338.321 31.398H324.014C324.166 33.45 325.42 34.476 327.776 34.476C328.878 34.476 331.766 34.077 336.44 33.279L337.409 40.974C333.381 42.038 329.619 42.57 326.123 42.57C321.563 42.57 318.067 41.316 315.635 38.808C313.241 36.3 312.044 32.785 312.044 28.263ZM354.03 21.708L355.398 14.697H367.596L362.01 28.548L367.767 42H355.17L353.574 35.217H353.232L351.75 42H339.495L345.195 28.833C345.005 28.377 344.188 26.344 342.744 22.734C341.338 19.124 340.274 16.445 339.552 14.697H352.491L353.688 21.708H354.03Z"/>
</mask>
<path d="M19.701 30.942H17.25V42H5.28V6.603H19.074C23.748 6.603 27.149 7.553 29.277 9.453C31.405 11.353 32.469 14.488 32.469 18.858C32.469 23.228 31.443 26.344 29.391 28.206C27.339 30.03 24.109 30.942 19.701 30.942ZM20.271 22.677C20.613 22.069 20.784 21.043 20.784 19.599C20.784 18.155 20.594 17.129 20.214 16.521C19.872 15.913 19.207 15.609 18.219 15.609H17.022V23.589H18.504C19.378 23.589 19.967 23.285 20.271 22.677ZM33.5523 28.263C33.5523 23.247 34.6543 19.618 36.8583 17.376C39.1003 15.134 42.5773 14.013 47.2893 14.013C52.0393 14.013 55.4973 15.115 57.6633 17.319C59.8293 19.523 60.9123 23.152 60.9123 28.206C60.9123 33.222 59.8483 36.87 57.7203 39.15C55.6303 41.43 52.1723 42.57 47.3463 42.57C42.5583 42.57 39.0623 41.43 36.8583 39.15C34.6543 36.87 33.5523 33.241 33.5523 28.263ZM48.7713 23.418C48.5813 22.734 48.0873 22.392 47.2893 22.392C46.4913 22.392 45.9783 22.734 45.7503 23.418C45.5603 24.064 45.4653 25.47 45.4653 27.636V29.004C45.4653 31.436 45.5603 33.013 45.7503 33.735C45.9783 34.419 46.4913 34.761 47.2893 34.761C48.0873 34.761 48.5813 34.419 48.7713 33.735C48.9993 33.013 49.1133 31.531 49.1133 29.289V27.693C49.1133 25.489 48.9993 24.064 48.7713 23.418ZM91.2579 42H78.4329L75.1269 33.051H74.8989V42H63.2139V5.463H74.8989V24.273H75.1269L79.1169 14.697H91.4859L85.1019 28.89C85.8239 30.448 86.8689 32.709 88.2369 35.673C89.6429 38.599 90.6499 40.708 91.2579 42ZM105.239 23.19C104.441 23.19 103.89 23.437 103.586 23.931C103.282 24.425 103.13 25.185 103.13 26.211H107.234V25.299C107.234 23.893 106.569 23.19 105.239 23.19ZM91.3882 28.263C91.3882 23.741 92.5662 20.245 94.9222 17.775C97.3162 15.267 100.812 14.013 105.41 14.013C110.046 14.013 113.314 14.963 115.214 16.863C117.152 18.763 118.121 21.48 118.121 25.014C118.121 26.42 117.969 28.548 117.665 31.398H103.358C103.51 33.45 104.764 34.476 107.12 34.476C108.222 34.476 111.11 34.077 115.784 33.279L116.753 40.974C112.725 42.038 108.963 42.57 105.467 42.57C100.907 42.57 97.4112 41.316 94.9792 38.808C92.5852 36.3 91.3882 32.785 91.3882 28.263ZM154.578 14.013C159.822 14.013 162.444 16.597 162.444 21.765V42H150.417V24.33C150.417 23.722 150.189 23.418 149.733 23.418C149.125 23.418 148.365 23.608 147.453 23.988V42H135.426V24.33C135.426 23.722 135.179 23.418 134.685 23.418C134.001 23.418 133.241 23.608 132.405 23.988V42H120.549V14.697H131.322L131.664 16.464C134.21 14.83 136.965 14.013 139.929 14.013C142.893 14.013 145.021 14.925 146.313 16.749C148.897 14.925 151.652 14.013 154.578 14.013ZM164.754 28.263C164.754 23.247 165.856 19.618 168.06 17.376C170.302 15.134 173.779 14.013 178.491 14.013C183.241 14.013 186.699 15.115 188.865 17.319C191.031 19.523 192.114 23.152 192.114 28.206C192.114 33.222 191.05 36.87 188.922 39.15C186.832 41.43 183.374 42.57 178.548 42.57C173.76 42.57 170.264 41.43 168.06 39.15C165.856 36.87 164.754 33.241 164.754 28.263ZM179.973 23.418C179.783 22.734 179.289 22.392 178.491 22.392C177.693 22.392 177.18 22.734 176.952 23.418C176.762 24.064 176.667 25.47 176.667 27.636V29.004C176.667 31.436 176.762 33.013 176.952 33.735C177.18 34.419 177.693 34.761 178.491 34.761C179.289 34.761 179.783 34.419 179.973 33.735C180.201 33.013 180.315 31.531 180.315 29.289V27.693C180.315 25.489 180.201 24.064 179.973 23.418ZM213.34 14.013C218.66 14.013 221.32 16.597 221.32 21.765V42H209.293V24.33C209.293 23.722 208.97 23.418 208.324 23.418C207.716 23.418 207.032 23.608 206.272 23.988V42H194.416V14.697H205.189L205.531 16.464C207.925 14.83 210.528 14.013 213.34 14.013ZM248.046 42H236.019V6.603H248.046V42ZM271.037 14.013C276.357 14.013 279.017 16.597 279.017 21.765V42H266.99V24.33C266.99 23.722 266.667 23.418 266.021 23.418C265.413 23.418 264.729 23.608 263.969 23.988V42H252.113V14.697H262.886L263.228 16.464C265.622 14.83 268.225 14.013 271.037 14.013ZM304.829 42.57C301.865 42.57 299.832 41.829 298.73 40.347H298.502C296.754 41.829 294.683 42.57 292.289 42.57C288.337 42.57 285.525 41.316 283.853 38.808C282.181 36.3 281.345 32.747 281.345 28.149C281.345 23.551 282.257 20.055 284.081 17.661C285.943 15.229 288.603 14.013 292.061 14.013C294.037 14.013 295.633 14.317 296.849 14.925V5.463H308.306V33.45C308.306 33.944 308.477 34.286 308.819 34.476C309.199 34.666 309.845 34.761 310.757 34.761L309.731 42.342C307.755 42.494 306.121 42.57 304.829 42.57ZM295.025 22.677C294.265 22.677 293.771 23.114 293.543 23.988C293.353 24.862 293.258 26.382 293.258 28.548C293.258 30.714 293.353 32.234 293.543 33.108C293.733 33.944 294.208 34.362 294.968 34.362C295.766 34.362 296.393 34.286 296.849 34.134V23.076C296.203 22.81 295.595 22.677 295.025 22.677ZM325.895 23.19C325.097 23.19 324.546 23.437 324.242 23.931C323.938 24.425 323.786 25.185 323.786 26.211H327.89V25.299C327.89 23.893 327.225 23.19 325.895 23.19ZM312.044 28.263C312.044 23.741 313.222 20.245 315.578 17.775C317.972 15.267 321.468 14.013 326.066 14.013C330.702 14.013 333.97 14.963 335.87 16.863C337.808 18.763 338.777 21.48 338.777 25.014C338.777 26.42 338.625 28.548 338.321 31.398H324.014C324.166 33.45 325.42 34.476 327.776 34.476C328.878 34.476 331.766 34.077 336.44 33.279L337.409 40.974C333.381 42.038 329.619 42.57 326.123 42.57C321.563 42.57 318.067 41.316 315.635 38.808C313.241 36.3 312.044 32.785 312.044 28.263ZM354.03 21.708L355.398 14.697H367.596L362.01 28.548L367.767 42H355.17L353.574 35.217H353.232L351.75 42H339.495L345.195 28.833C345.005 28.377 344.188 26.344 342.744 22.734C341.338 19.124 340.274 16.445 339.552 14.697H352.491L353.688 21.708H354.03Z" fill="#FFAE00"/>
<path d="M17.25 30.942V25.942H12.25V30.942H17.25ZM17.25 42V47H22.25V42H17.25ZM5.28 42H0.28V47H5.28V42ZM5.28 6.603V1.603H0.28V6.603H5.28ZM29.277 9.453L25.9469 13.1827L29.277 9.453ZM29.391 28.206L32.7128 31.943L32.732 31.926L32.751 31.9088L29.391 28.206ZM20.271 22.677L15.9131 20.2257L15.8534 20.3319L15.7989 20.4409L20.271 22.677ZM20.214 16.521L15.8561 18.9723L15.9128 19.073L15.974 19.171L20.214 16.521ZM17.022 15.609V10.609H12.022V15.609H17.022ZM17.022 23.589H12.022V28.589H17.022V23.589ZM19.701 30.942V25.942H17.25V30.942V35.942H19.701V30.942ZM17.25 30.942H12.25V42H17.25H22.25V30.942H17.25ZM17.25 42V37H5.28V42V47H17.25V42ZM5.28 42H10.28V6.603H5.28H0.28V42H5.28ZM5.28 6.603V11.603H19.074V6.603V1.603H5.28V6.603ZM19.074 6.603V11.603C23.2546 11.603 25.1654 12.4849 25.9469 13.1827L29.277 9.453L32.6071 5.72331C29.1327 2.62114 24.2414 1.603 19.074 1.603V6.603ZM29.277 9.453L25.9469 13.1827C26.5557 13.7263 27.469 15.1567 27.469 18.858H32.469H37.469C37.469 13.8193 36.2543 8.97973 32.6071 5.72331L29.277 9.453ZM32.469 18.858H27.469C27.469 22.6177 26.5652 24.0185 26.0311 24.5032L29.391 28.206L32.751 31.9088C36.3208 28.6695 37.469 23.8383 37.469 18.858H32.469ZM29.391 28.206L26.0692 24.469C25.3472 25.1107 23.585 25.942 19.701 25.942V30.942V35.942C24.633 35.942 29.3308 34.9493 32.7128 31.943L29.391 28.206ZM20.271 22.677L24.6289 25.1283C25.6456 23.3208 25.784 21.1661 25.784 19.599H20.784H15.784C15.784 20.1429 15.7504 20.4697 15.7238 20.6295C15.7114 20.704 15.7068 20.7029 15.725 20.6449C15.7424 20.5896 15.7951 20.4355 15.9131 20.2257L20.271 22.677ZM20.784 19.599H25.784C25.784 17.9958 25.6244 15.7437 24.454 13.871L20.214 16.521L15.974 19.171C15.8363 18.9507 15.7694 18.7796 15.7424 18.7022C15.7149 18.6234 15.7148 18.6014 15.7251 18.6569C15.735 18.7105 15.7505 18.8143 15.7631 18.9779C15.7756 19.1402 15.784 19.3456 15.784 19.599H20.784ZM20.214 16.521L24.5719 14.0697C22.9973 11.2704 20.1725 10.609 18.219 10.609V15.609V20.609C18.2139 20.609 18.1333 20.6089 17.9951 20.5835C17.8554 20.5578 17.6393 20.5029 17.38 20.3844C16.7995 20.119 16.2299 19.6368 15.8561 18.9723L20.214 16.521ZM18.219 15.609V10.609H17.022V15.609V20.609H18.219V15.609ZM17.022 15.609H12.022V23.589H17.022H22.022V15.609H17.022ZM17.022 23.589V28.589H18.504V23.589V18.589H17.022V23.589ZM18.504 23.589V28.589C20.6305 28.589 23.339 27.7213 24.7431 24.9131L20.271 22.677L15.7989 20.4409C16.1079 19.8229 16.6352 19.2652 17.308 18.9179C17.9119 18.6062 18.3876 18.589 18.504 18.589V23.589ZM36.8583 17.376L33.3227 13.8405L33.3076 13.8556L33.2926 13.8708L36.8583 17.376ZM57.7203 39.15L54.065 35.7384L54.0497 35.7548L54.0345 35.7714L57.7203 39.15ZM36.8583 39.15L33.2633 42.6251L36.8583 39.15ZM48.7713 23.418L43.9537 24.7562L43.9994 24.9209L44.0563 25.0821L48.7713 23.418ZM45.7503 23.418L41.0069 21.8369L40.9786 21.9215L40.9534 22.0072L45.7503 23.418ZM45.7503 33.735L40.9149 35.0075L40.9559 35.1633L41.0069 35.3161L45.7503 33.735ZM48.7713 33.735L44.0034 32.2293L43.9771 32.3126L43.9537 32.3968L48.7713 33.735ZM33.5523 28.263H38.5523C38.5523 23.8079 39.5571 21.7629 40.4239 20.8812L36.8583 17.376L33.2926 13.8708C29.7514 17.4731 28.5523 22.6861 28.5523 28.263H33.5523ZM36.8583 17.376L40.3938 20.9115C41.3264 19.9789 43.264 19.013 47.2893 19.013V14.013V9.013C41.8906 9.013 36.8741 10.2891 33.3227 13.8405L36.8583 17.376ZM47.2893 14.013V19.013C51.4049 19.013 53.2719 19.984 54.0971 20.8237L57.6633 17.319L61.2294 13.8143C57.7226 10.246 52.6737 9.013 47.2893 9.013V14.013ZM57.6633 17.319L54.0971 20.8237C54.9081 21.6489 55.9123 23.6708 55.9123 28.206H60.9123H65.9123C65.9123 22.6332 64.7504 17.3971 61.2294 13.8143L57.6633 17.319ZM60.9123 28.206H55.9123C55.9123 32.6878 54.9334 34.808 54.065 35.7384L57.7203 39.15L61.3755 42.5616C64.7632 38.932 65.9123 33.7561 65.9123 28.206H60.9123ZM57.7203 39.15L54.0345 35.7714C53.3117 36.5599 51.5449 37.57 47.3463 37.57V42.57V47.57C52.7997 47.57 57.9489 46.3001 61.406 42.5286L57.7203 39.15ZM47.3463 42.57V37.57C43.229 37.57 41.3268 36.5786 40.4532 35.6749L36.8583 39.15L33.2633 42.6251C36.7977 46.2814 41.8875 47.57 47.3463 47.57V42.57ZM36.8583 39.15L40.4532 35.6749C39.5474 34.7378 38.5523 32.6574 38.5523 28.263H33.5523H28.5523C28.5523 33.8246 29.7612 39.0022 33.2633 42.6251L36.8583 39.15ZM48.7713 23.418L53.5889 22.0798C53.2405 20.8256 52.4805 19.4903 51.1043 18.5375C49.7863 17.6251 48.3764 17.392 47.2893 17.392V22.392V27.392C47.0001 27.392 46.2362 27.3299 45.4122 26.7595C44.53 26.1487 44.1121 25.3264 43.9537 24.7562L48.7713 23.418ZM47.2893 22.392V17.392C46.1908 17.392 44.8209 17.6294 43.5325 18.4882C42.1999 19.3766 41.4104 20.6261 41.0069 21.8369L45.7503 23.418L50.4937 24.9991C50.3181 25.5259 49.8991 26.2624 49.0795 26.8088C48.3042 27.3256 47.5897 27.392 47.2893 27.392V22.392ZM45.7503 23.418L40.9534 22.0072C40.6952 22.8853 40.5994 23.8581 40.5479 24.6199C40.4899 25.4776 40.4653 26.4932 40.4653 27.636H45.4653H50.4653C50.4653 26.6128 50.4881 25.8424 50.5251 25.2941C50.5436 25.0213 50.5632 24.84 50.578 24.7328C50.5957 24.6057 50.5958 24.6634 50.5471 24.8288L45.7503 23.418ZM45.4653 27.636H40.4653V29.004H45.4653H50.4653V27.636H45.4653ZM45.4653 29.004H40.4653C40.4653 31.2836 40.5295 33.543 40.9149 35.0075L45.7503 33.735L50.5856 32.4625C50.6239 32.6078 50.572 32.4494 50.5275 31.7101C50.4883 31.0597 50.4653 30.1669 50.4653 29.004H45.4653ZM45.7503 33.735L41.0069 35.3161C41.4104 36.5269 42.1999 37.7764 43.5325 38.6647C44.8209 39.5236 46.1908 39.761 47.2893 39.761V34.761V29.761C47.5897 29.761 48.3042 29.8274 49.0795 30.3442C49.8991 30.8906 50.3181 31.6271 50.4937 32.1539L45.7503 33.735ZM47.2893 34.761V39.761C48.3764 39.761 49.7863 39.5279 51.1043 38.6155C52.4805 37.6627 53.2405 36.3274 53.5889 35.0732L48.7713 33.735L43.9537 32.3968C44.1121 31.8266 44.53 31.0043 45.4122 30.3935C46.2362 29.8231 47.0001 29.761 47.2893 29.761V34.761ZM48.7713 33.735L53.5392 35.2407C53.8315 34.3148 53.9491 33.2969 54.013 32.4655C54.0834 31.5504 54.1133 30.4808 54.1133 29.289H49.1133H44.1133C44.1133 30.3392 44.0861 31.1316 44.0425 31.6985C44.0208 31.98 43.9978 32.1697 43.98 32.2843C43.9598 32.4148 43.9576 32.3743 44.0034 32.2293L48.7713 33.735ZM49.1133 29.289H54.1133V27.693H49.1133H44.1133V29.289H49.1133ZM49.1133 27.693H54.1133C54.1133 26.5208 54.0835 25.4682 54.0118 24.5725C53.9492 23.79 53.8289 22.725 53.4862 21.7539L48.7713 23.418L44.0563 25.0821C43.979 24.8629 43.9704 24.7584 43.9877 24.8632C44.0012 24.9451 44.0227 25.107 44.0437 25.37C44.086 25.8993 44.1133 26.6612 44.1133 27.693H49.1133ZM91.2579 42V47H99.1368L95.782 39.871L91.2579 42ZM78.4329 42L73.7427 43.7327L74.9498 47H78.4329V42ZM75.1269 33.051L79.8171 31.3183L78.6101 28.051H75.1269V33.051ZM74.8989 33.051V28.051H69.8989V33.051H74.8989ZM74.8989 42V47H79.8989V42H74.8989ZM63.2139 42H58.2139V47H63.2139V42ZM63.2139 5.463V0.462998H58.2139V5.463H63.2139ZM74.8989 5.463H79.8989V0.462998H74.8989V5.463ZM74.8989 24.273H69.8989V29.273H74.8989V24.273ZM75.1269 24.273V29.273H78.4602L79.7423 26.1961L75.1269 24.273ZM79.1169 14.697V9.697H75.7836L74.5015 12.7739L79.1169 14.697ZM91.4859 14.697L96.0459 16.7481L99.2174 9.697H91.4859V14.697ZM85.1019 28.89L80.542 26.8389L79.6055 28.921L80.5654 30.9923L85.1019 28.89ZM88.2369 35.673L83.6971 37.7683L83.7134 37.8036L83.7302 37.8386L88.2369 35.673ZM91.2579 42V37H78.4329V42V47H91.2579V42ZM78.4329 42L83.1231 40.2673L79.8171 31.3183L75.1269 33.051L70.4367 34.7837L73.7427 43.7327L78.4329 42ZM75.1269 33.051V28.051H74.8989V33.051V38.051H75.1269V33.051ZM74.8989 33.051H69.8989V42H74.8989H79.8989V33.051H74.8989ZM74.8989 42V37H63.2139V42V47H74.8989V42ZM63.2139 42H68.2139V5.463H63.2139H58.2139V42H63.2139ZM63.2139 5.463V10.463H74.8989V5.463V0.462998H63.2139V5.463ZM74.8989 5.463H69.8989V24.273H74.8989H79.8989V5.463H74.8989ZM74.8989 24.273V29.273H75.1269V24.273V19.273H74.8989V24.273ZM75.1269 24.273L79.7423 26.1961L83.7323 16.6201L79.1169 14.697L74.5015 12.7739L70.5115 22.3499L75.1269 24.273ZM79.1169 14.697V19.697H91.4859V14.697V9.697H79.1169V14.697ZM91.4859 14.697L86.926 12.6459L80.542 26.8389L85.1019 28.89L89.6619 30.9411L96.0459 16.7481L91.4859 14.697ZM85.1019 28.89L80.5654 30.9923C81.2857 32.5467 82.3294 34.805 83.6971 37.7683L88.2369 35.673L92.7767 33.5777C91.4084 30.613 90.3621 28.3493 89.6385 26.7877L85.1019 28.89ZM88.2369 35.673L83.7302 37.8386C85.1358 40.7637 86.1352 42.8569 86.7338 44.129L91.2579 42L95.782 39.871C95.1646 38.5591 94.15 36.4343 92.7436 33.5074L88.2369 35.673ZM103.586 23.931L107.844 26.5515L107.844 26.5515L103.586 23.931ZM103.13 26.211H98.1302V31.211H103.13V26.211ZM107.234 26.211V31.211H112.234V26.211H107.234ZM94.9222 17.775L91.3054 14.3226L91.3042 14.3239L94.9222 17.775ZM115.214 16.863L111.679 20.3985L111.696 20.416L111.714 20.4334L115.214 16.863ZM117.665 31.398V36.398H122.16L122.637 31.9283L117.665 31.398ZM103.358 31.398V26.398H97.9741L98.3719 31.7674L103.358 31.398ZM115.784 33.279L120.745 32.6543L120.092 27.4711L114.943 28.3503L115.784 33.279ZM116.753 40.974L118.03 45.8082L122.261 44.6907L121.714 40.3493L116.753 40.974ZM94.9792 38.808L91.3624 42.2604L91.376 42.2746L91.3897 42.2887L94.9792 38.808ZM105.239 23.19V18.19C103.43 18.19 100.866 18.8104 99.3279 21.3105L103.586 23.931L107.844 26.5515C107.448 27.1957 106.873 27.6686 106.273 27.9378C105.733 28.1795 105.329 28.19 105.239 28.19V23.19ZM103.586 23.931L99.3279 21.3105C98.2939 22.9908 98.1302 24.8778 98.1302 26.211H103.13H108.13C108.13 25.9284 108.153 25.8249 108.147 25.8521C108.143 25.871 108.127 25.9453 108.086 26.0601C108.044 26.1751 107.97 26.3476 107.844 26.5515L103.586 23.931ZM103.13 26.211V31.211H107.234V26.211V21.211H103.13V26.211ZM107.234 26.211H112.234V25.299H107.234H102.234V26.211H107.234ZM107.234 25.299H112.234C112.234 23.8924 111.907 21.9081 110.368 20.2812C108.78 18.6023 106.748 18.19 105.239 18.19V23.19V28.19C105.06 28.19 104.026 28.1292 103.103 27.1532C102.229 26.2294 102.234 25.2996 102.234 25.299H107.234ZM91.3882 28.263H96.3882C96.3882 24.5971 97.3288 22.4961 98.5402 21.2261L94.9222 17.775L91.3042 14.3239C87.8036 17.9939 86.3882 22.8849 86.3882 28.263H91.3882ZM94.9222 17.775L98.539 21.2274C99.7107 19.9999 101.714 19.013 105.41 19.013V14.013V9.013C99.9105 9.013 94.9218 10.5341 91.3054 14.3226L94.9222 17.775ZM105.41 14.013V19.013C109.616 19.013 111.201 19.9212 111.679 20.3985L115.214 16.863L118.75 13.3275C115.427 10.0048 110.477 9.013 105.41 9.013V14.013ZM115.214 16.863L111.714 20.4334C112.427 21.1326 113.121 22.3992 113.121 25.014H118.121H123.121C123.121 20.5608 121.877 16.3934 118.715 13.2926L115.214 16.863ZM118.121 25.014H113.121C113.121 26.1423 112.994 28.0526 112.693 30.8677L117.665 31.398L122.637 31.9283C122.945 29.0434 123.121 26.6978 123.121 25.014H118.121ZM117.665 31.398V26.398H103.358V31.398V36.398H117.665V31.398ZM103.358 31.398L98.3719 31.7674C98.5202 33.7694 99.2893 35.9749 101.247 37.5763C103.095 39.0883 105.298 39.476 107.12 39.476V34.476V29.476C106.587 29.476 106.985 29.3507 107.579 29.8367C107.883 30.0858 108.099 30.3884 108.227 30.6672C108.344 30.9237 108.348 31.0745 108.345 31.0286L103.358 31.398ZM107.12 34.476V39.476C108.747 39.476 112.13 38.9753 116.626 38.2077L115.784 33.279L114.943 28.3503C112.63 28.7452 110.798 29.0346 109.428 29.2238C108.743 29.3184 108.199 29.3845 107.784 29.426C107.577 29.4467 107.417 29.4599 107.296 29.4676C107.17 29.4757 107.117 29.476 107.12 29.476V34.476ZM115.784 33.279L110.823 33.9037L111.792 41.5987L116.753 40.974L121.714 40.3493L120.745 32.6543L115.784 33.279ZM116.753 40.974L115.476 36.1398C111.788 37.1141 108.459 37.57 105.467 37.57V42.57V47.57C109.467 47.57 113.662 46.9619 118.03 45.8082L116.753 40.974ZM105.467 42.57V37.57C101.828 37.57 99.7956 36.5925 98.5687 35.3273L94.9792 38.808L91.3897 42.2887C95.0268 46.0395 99.9864 47.57 105.467 47.57V42.57ZM94.9792 38.808L98.596 35.3556C97.3345 34.0341 96.3882 31.9036 96.3882 28.263H91.3882H86.3882C86.3882 33.6664 87.8359 38.5659 91.3624 42.2604L94.9792 38.808ZM162.444 42V47H167.444V42H162.444ZM150.417 42H145.417V47H150.417V42ZM147.453 23.988L145.53 19.3726L142.453 20.6547V23.988H147.453ZM147.453 42V47H152.453V42H147.453ZM135.426 42H130.426V47H135.426V42ZM132.405 23.988L130.336 19.4362L127.405 20.7684V23.988H132.405ZM132.405 42V47H137.405V42H132.405ZM120.549 42H115.549V47H120.549V42ZM120.549 14.697V9.697H115.549V14.697H120.549ZM131.322 14.697L136.231 13.7469L135.447 9.697H131.322V14.697ZM131.664 16.464L126.755 17.4141L128.157 24.6561L134.364 20.6719L131.664 16.464ZM146.313 16.749L142.233 19.6391L145.118 23.7125L149.196 20.8338L146.313 16.749ZM154.578 14.013V19.013C156.447 19.013 156.928 19.4726 156.968 19.5122C156.995 19.5386 157.444 19.9703 157.444 21.765H162.444H167.444C167.444 18.3917 166.582 14.9474 163.987 12.3898C161.405 9.8454 157.952 9.013 154.578 9.013V14.013ZM162.444 21.765H157.444V42H162.444H167.444V21.765H162.444ZM162.444 42V37H150.417V42V47H162.444V42ZM150.417 42H155.417V24.33H150.417H145.417V42H150.417ZM150.417 24.33H155.417C155.417 23.5452 155.295 22.045 154.246 20.646C152.994 18.9765 151.181 18.418 149.733 18.418V23.418V28.418C148.741 28.418 147.27 28.0115 146.246 26.646C145.425 25.551 145.417 24.5068 145.417 24.33H150.417ZM149.733 23.418V18.418C148.18 18.418 146.717 18.8779 145.53 19.3726L147.453 23.988L149.376 28.6034C149.658 28.4859 149.835 28.4324 149.92 28.4112C150.01 28.3885 149.935 28.418 149.733 28.418V23.418ZM147.453 23.988H142.453V42H147.453H152.453V23.988H147.453ZM147.453 42V37H135.426V42V47H147.453V42ZM135.426 42H140.426V24.33H135.426H130.426V42H135.426ZM135.426 24.33H140.426C140.426 23.478 140.274 21.9114 139.121 20.493C137.807 18.8761 136.009 18.418 134.685 18.418V23.418V28.418C133.855 28.418 132.427 28.1119 131.36 26.799C130.455 25.6846 130.426 24.574 130.426 24.33H135.426ZM134.685 23.418V18.418C133.087 18.418 131.611 18.8567 130.336 19.4362L132.405 23.988L134.474 28.5398C134.662 28.4544 134.773 28.4215 134.815 28.4112C134.854 28.4013 134.806 28.418 134.685 28.418V23.418ZM132.405 23.988H127.405V42H132.405H137.405V23.988H132.405ZM132.405 42V37H120.549V42V47H132.405V42ZM120.549 42H125.549V14.697H120.549H115.549V42H120.549ZM120.549 14.697V19.697H131.322V14.697V9.697H120.549V14.697ZM131.322 14.697L126.413 15.6471L126.755 17.4141L131.664 16.464L136.573 15.5139L136.231 13.7469L131.322 14.697ZM131.664 16.464L134.364 20.6719C136.122 19.5438 137.943 19.013 139.929 19.013V14.013V9.013C135.987 9.013 132.297 10.1162 128.963 12.2561L131.664 16.464ZM139.929 14.013V19.013C141.852 19.013 142.17 19.5502 142.233 19.6391L146.313 16.749L150.393 13.8589C147.872 10.2998 143.934 9.013 139.929 9.013V14.013ZM146.313 16.749L149.196 20.8338C151.009 19.5545 152.769 19.013 154.578 19.013V14.013V9.013C150.535 9.013 146.785 10.2955 143.429 12.6642L146.313 16.749ZM168.06 17.376L164.525 13.8405L164.51 13.8556L164.495 13.8708L168.06 17.376ZM188.922 39.15L185.267 35.7384L185.252 35.7548L185.237 35.7714L188.922 39.15ZM168.06 39.15L164.465 42.6251L168.06 39.15ZM179.973 23.418L175.156 24.7562L175.202 24.9209L175.258 25.0821L179.973 23.418ZM176.952 23.418L172.209 21.8369L172.181 21.9215L172.156 22.0072L176.952 23.418ZM176.952 33.735L172.117 35.0075L172.158 35.1633L172.209 35.3161L176.952 33.735ZM179.973 33.735L175.206 32.2293L175.179 32.3126L175.156 32.3968L179.973 33.735ZM164.754 28.263H169.754C169.754 23.8079 170.759 21.7629 171.626 20.8812L168.06 17.376L164.495 13.8708C160.954 17.4731 159.754 22.6861 159.754 28.263H164.754ZM168.06 17.376L171.596 20.9115C172.529 19.9789 174.466 19.013 178.491 19.013V14.013V9.013C173.093 9.013 168.076 10.2891 164.525 13.8405L168.06 17.376ZM178.491 14.013V19.013C182.607 19.013 184.474 19.984 185.299 20.8237L188.865 17.319L192.432 13.8143C188.925 10.246 183.876 9.013 178.491 9.013V14.013ZM188.865 17.319L185.299 20.8237C186.11 21.6489 187.114 23.6708 187.114 28.206H192.114H197.114C197.114 22.6332 195.953 17.3971 192.432 13.8143L188.865 17.319ZM192.114 28.206H187.114C187.114 32.6878 186.136 34.808 185.267 35.7384L188.922 39.15L192.578 42.5616C195.965 38.932 197.114 33.7561 197.114 28.206H192.114ZM188.922 39.15L185.237 35.7714C184.514 36.5599 182.747 37.57 178.548 37.57V42.57V47.57C184.002 47.57 189.151 46.3001 192.608 42.5286L188.922 39.15ZM178.548 42.57V37.57C174.431 37.57 172.529 36.5786 171.655 35.6749L168.06 39.15L164.465 42.6251C168 46.2814 173.09 47.57 178.548 47.57V42.57ZM168.06 39.15L171.655 35.6749C170.75 34.7378 169.754 32.6574 169.754 28.263H164.754H159.754C159.754 33.8246 160.963 39.0022 164.465 42.6251L168.06 39.15ZM179.973 23.418L184.791 22.0798C184.443 20.8256 183.683 19.4903 182.306 18.5375C180.988 17.6251 179.579 17.392 178.491 17.392V22.392V27.392C178.202 27.392 177.438 27.3299 176.614 26.7595C175.732 26.1487 175.314 25.3264 175.156 24.7562L179.973 23.418ZM178.491 22.392V17.392C177.393 17.392 176.023 17.6294 174.735 18.4882C173.402 19.3766 172.613 20.6261 172.209 21.8369L176.952 23.418L181.696 24.9991C181.52 25.5259 181.101 26.2624 180.282 26.8088C179.506 27.3256 178.792 27.392 178.491 27.392V22.392ZM176.952 23.418L172.156 22.0072C171.897 22.8853 171.802 23.8581 171.75 24.6199C171.692 25.4776 171.667 26.4932 171.667 27.636H176.667H181.667C181.667 26.6128 181.69 25.8424 181.727 25.2941C181.746 25.0213 181.765 24.84 181.78 24.7328C181.798 24.6057 181.798 24.6634 181.749 24.8288L176.952 23.418ZM176.667 27.636H171.667V29.004H176.667H181.667V27.636H176.667ZM176.667 29.004H171.667C171.667 31.2836 171.732 33.543 172.117 35.0075L176.952 33.735L181.788 32.4625C181.826 32.6078 181.774 32.4494 181.73 31.7101C181.69 31.0597 181.667 30.1669 181.667 29.004H176.667ZM176.952 33.735L172.209 35.3161C172.613 36.5269 173.402 37.7764 174.735 38.6647C176.023 39.5236 177.393 39.761 178.491 39.761V34.761V29.761C178.792 29.761 179.506 29.8274 180.282 30.3442C181.101 30.8906 181.52 31.6271 181.696 32.1539L176.952 33.735ZM178.491 34.761V39.761C179.579 39.761 180.988 39.5279 182.306 38.6155C183.683 37.6627 184.443 36.3274 184.791 35.0732L179.973 33.735L175.156 32.3968C175.314 31.8266 175.732 31.0043 176.614 30.3935C177.438 29.8231 178.202 29.761 178.491 29.761V34.761ZM179.973 33.735L184.741 35.2407C185.034 34.3148 185.151 33.2969 185.215 32.4655C185.286 31.5504 185.315 30.4808 185.315 29.289H180.315H175.315C175.315 30.3392 175.288 31.1316 175.245 31.6985C175.223 31.98 175.2 32.1697 175.182 32.2843C175.162 32.4148 175.16 32.3743 175.206 32.2293L179.973 33.735ZM180.315 29.289H185.315V27.693H180.315H175.315V29.289H180.315ZM180.315 27.693H185.315C185.315 26.5208 185.286 25.4682 185.214 24.5725C185.151 23.79 185.031 22.725 184.688 21.7539L179.973 23.418L175.258 25.0821C175.181 24.8629 175.173 24.7584 175.19 24.8632C175.203 24.9451 175.225 25.107 175.246 25.37C175.288 25.8993 175.315 26.6612 175.315 27.693H180.315ZM221.32 42V47H226.32V42H221.32ZM209.293 42H204.293V47H209.293V42ZM206.272 23.988L204.036 19.5159L201.272 20.8978V23.988H206.272ZM206.272 42V47H211.272V42H206.272ZM194.416 42H189.416V47H194.416V42ZM194.416 14.697V9.697H189.416V14.697H194.416ZM205.189 14.697L210.098 13.7469L209.314 9.697H205.189V14.697ZM205.531 16.464L200.622 17.4141L202.067 24.8817L208.35 20.5937L205.531 16.464ZM213.34 14.013V19.013C215.265 19.013 215.784 19.4818 215.841 19.5374C215.872 19.5669 216.32 19.9891 216.32 21.765H221.32H226.32C226.32 18.3729 225.439 14.9191 222.809 12.3646C220.206 9.83624 216.735 9.013 213.34 9.013V14.013ZM221.32 21.765H216.32V42H221.32H226.32V21.765H221.32ZM221.32 42V37H209.293V42V47H221.32V42ZM209.293 42H214.293V24.33H209.293H204.293V42H209.293ZM209.293 24.33H214.293C214.293 23.1752 213.972 21.4112 212.478 20.005C211.04 18.6524 209.345 18.418 208.324 18.418V23.418V28.418C207.949 28.418 206.738 28.3356 205.624 27.287C204.453 26.1848 204.293 24.8768 204.293 24.33H209.293ZM208.324 23.418V18.418C206.694 18.418 205.231 18.9185 204.036 19.5159L206.272 23.988L208.508 28.4601C208.655 28.3868 208.714 28.3722 208.693 28.3781C208.67 28.3844 208.54 28.418 208.324 28.418V23.418ZM206.272 23.988H201.272V42H206.272H211.272V23.988H206.272ZM206.272 42V37H194.416V42V47H206.272V42ZM194.416 42H199.416V14.697H194.416H189.416V42H194.416ZM194.416 14.697V19.697H205.189V14.697V9.697H194.416V14.697ZM205.189 14.697L200.28 15.6471L200.622 17.4141L205.531 16.464L210.44 15.5139L210.098 13.7469L205.189 14.697ZM205.531 16.464L208.35 20.5937C209.94 19.5082 211.566 19.013 213.34 19.013V14.013V9.013C209.49 9.013 205.91 10.1518 202.712 12.3342L205.531 16.464ZM248.046 42V47H253.046V42H248.046ZM236.019 42H231.019V47H236.019V42ZM236.019 6.603V1.603H231.019V6.603H236.019ZM248.046 6.603H253.046V1.603H248.046V6.603ZM248.046 42V37H236.019V42V47H248.046V42ZM236.019 42H241.019V6.603H236.019H231.019V42H236.019ZM236.019 6.603V11.603H248.046V6.603V1.603H236.019V6.603ZM248.046 6.603H243.046V42H248.046H253.046V6.603H248.046ZM279.017 42V47H284.017V42H279.017ZM266.99 42H261.99V47H266.99V42ZM263.969 23.988L261.733 19.5159L258.969 20.8978V23.988H263.969ZM263.969 42V47H268.969V42H263.969ZM252.113 42H247.113V47H252.113V42ZM252.113 14.697V9.697H247.113V14.697H252.113ZM262.886 14.697L267.795 13.7469L267.011 9.697H262.886V14.697ZM263.228 16.464L258.319 17.4141L259.765 24.8817L266.047 20.5937L263.228 16.464ZM271.037 14.013V19.013C272.962 19.013 273.481 19.4818 273.538 19.5374C273.569 19.5669 274.017 19.9891 274.017 21.765H279.017H284.017C284.017 18.3729 283.136 14.9191 280.506 12.3646C277.904 9.83624 274.432 9.013 271.037 9.013V14.013ZM279.017 21.765H274.017V42H279.017H284.017V21.765H279.017ZM279.017 42V37H266.99V42V47H279.017V42ZM266.99 42H271.99V24.33H266.99H261.99V42H266.99ZM266.99 24.33H271.99C271.99 23.1752 271.669 21.4112 270.175 20.005C268.738 18.6524 267.042 18.418 266.021 18.418V23.418V28.418C265.647 28.418 264.435 28.3356 263.321 27.287C262.15 26.1848 261.99 24.8768 261.99 24.33H266.99ZM266.021 23.418V18.418C264.391 18.418 262.928 18.9185 261.733 19.5159L263.969 23.988L266.205 28.4601C266.352 28.3868 266.412 28.3722 266.391 28.3781C266.368 28.3844 266.238 28.418 266.021 28.418V23.418ZM263.969 23.988H258.969V42H263.969H268.969V23.988H263.969ZM263.969 42V37H252.113V42V47H263.969V42ZM252.113 42H257.113V14.697H252.113H247.113V42H252.113ZM252.113 14.697V19.697H262.886V14.697V9.697H252.113V14.697ZM262.886 14.697L257.977 15.6471L258.319 17.4141L263.228 16.464L268.137 15.5139L267.795 13.7469L262.886 14.697ZM263.228 16.464L266.047 20.5937C267.638 19.5082 269.263 19.013 271.037 19.013V14.013V9.013C267.187 9.013 263.607 10.1518 260.41 12.3342L263.228 16.464ZM298.73 40.347L302.743 37.3635L301.243 35.347H298.73V40.347ZM298.502 40.347V35.347H296.668L295.269 36.5332L298.502 40.347ZM283.853 38.808L279.693 41.5815L283.853 38.808ZM284.081 17.661L280.111 14.6214L280.104 14.6308L284.081 17.661ZM296.849 14.925L294.613 19.3971L301.849 23.0152V14.925H296.849ZM296.849 5.463V0.462998H291.849V5.463H296.849ZM308.306 5.463H313.306V0.462998H308.306V5.463ZM308.819 34.476L306.391 38.8468L306.486 38.8995L306.583 38.9481L308.819 34.476ZM310.757 34.761L315.712 35.4316L316.48 29.761H310.757V34.761ZM309.731 42.342L310.115 47.3273L314.144 47.0173L314.686 43.0126L309.731 42.342ZM293.543 23.988L288.705 22.7259L288.679 22.8254L288.657 22.9258L293.543 23.988ZM293.543 33.108L288.657 34.1702L288.662 34.1931L288.668 34.2161L293.543 33.108ZM296.849 34.134L298.43 38.8774L301.849 37.7378V34.134H296.849ZM296.849 23.076H301.849V19.7275L298.753 18.4526L296.849 23.076ZM304.829 42.57V37.57C303.73 37.57 303.1 37.4282 302.794 37.3166C302.534 37.2219 302.616 37.1938 302.743 37.3635L298.73 40.347L294.718 43.3305C297.22 46.695 301.249 47.57 304.829 47.57V42.57ZM298.73 40.347V35.347H298.502V40.347V45.347H298.73V40.347ZM298.502 40.347L295.269 36.5332C294.467 37.213 293.556 37.57 292.289 37.57V42.57V47.57C295.81 47.57 299.041 46.445 301.736 44.1608L298.502 40.347ZM292.289 42.57V37.57C289.429 37.57 288.477 36.7298 288.013 36.0345L283.853 38.808L279.693 41.5815C282.573 45.9022 287.245 47.57 292.289 47.57V42.57ZM283.853 38.808L288.013 36.0345C287.107 34.6743 286.345 32.2433 286.345 28.149H281.345H276.345C276.345 33.2507 277.256 37.9257 279.693 41.5815L283.853 38.808ZM281.345 28.149H286.345C286.345 24.0996 287.166 21.8619 288.058 20.6912L284.081 17.661L280.104 14.6308C277.348 18.2481 276.345 23.0024 276.345 28.149H281.345ZM284.081 17.661L288.051 20.7006C288.836 19.6755 289.931 19.013 292.061 19.013V14.013V9.013C287.276 9.013 283.05 10.7825 280.111 14.6214L284.081 17.661ZM292.061 14.013V19.013C293.587 19.013 294.334 19.2575 294.613 19.3971L296.849 14.925L299.085 10.4529C296.933 9.37653 294.487 9.013 292.061 9.013V14.013ZM296.849 14.925H301.849V5.463H296.849H291.849V14.925H296.849ZM296.849 5.463V10.463H308.306V5.463V0.462998H296.849V5.463ZM308.306 5.463H303.306V33.45H308.306H313.306V5.463H308.306ZM308.306 33.45H303.306C303.306 35.2021 304.028 37.5338 306.391 38.8468L308.819 34.476L311.247 30.1052C311.936 30.4875 312.53 31.0887 312.907 31.8409C313.254 32.5366 313.306 33.1398 313.306 33.45H308.306ZM308.819 34.476L306.583 38.9481C308.087 39.7001 309.763 39.761 310.757 39.761V34.761V29.761C310.614 29.761 310.506 29.7572 310.427 29.7525C310.348 29.7476 310.313 29.7425 310.316 29.743C310.317 29.743 310.381 29.7522 310.492 29.7831C310.6 29.8129 310.801 29.8769 311.055 30.0039L308.819 34.476ZM310.757 34.761L305.802 34.0904L304.776 41.6714L309.731 42.342L314.686 43.0126L315.712 35.4316L310.757 34.761ZM309.731 42.342L309.348 37.3567C307.44 37.5035 305.945 37.57 304.829 37.57V42.57V47.57C306.298 47.57 308.071 47.4845 310.115 47.3273L309.731 42.342ZM295.025 22.677V17.677C293.623 17.677 292.071 18.1105 290.772 19.2598C289.553 20.3381 288.98 21.6731 288.705 22.7259L293.543 23.988L298.381 25.2501C298.335 25.4289 298.123 26.1084 297.398 26.7497C296.592 27.462 295.668 27.677 295.025 27.677V22.677ZM293.543 23.988L288.657 22.9258C288.341 24.3803 288.258 26.386 288.258 28.548H293.258H298.258C298.258 26.378 298.365 25.3437 298.429 25.0501L293.543 23.988ZM293.258 28.548H288.258C288.258 30.71 288.341 32.7157 288.657 34.1702L293.543 33.108L298.429 32.0458C298.365 31.7523 298.258 30.718 298.258 28.548H293.258ZM293.543 33.108L288.668 34.2161C288.914 35.3016 289.475 36.6901 290.739 37.8021C292.065 38.9692 293.629 39.362 294.968 39.362V34.362V29.362C295.547 29.362 296.494 29.5458 297.345 30.2949C298.134 30.9889 298.362 31.7504 298.419 31.9999L293.543 33.108ZM294.968 34.362V39.362C295.998 39.362 297.239 39.2746 298.43 38.8774L296.849 34.134L295.268 29.3906C295.359 29.3602 295.421 29.346 295.445 29.341C295.47 29.3359 295.468 29.3374 295.435 29.3413C295.365 29.3498 295.216 29.362 294.968 29.362V34.362ZM296.849 34.134H301.849V23.076H296.849H291.849V34.134H296.849ZM296.849 23.076L298.753 18.4526C297.635 17.9925 296.378 17.677 295.025 17.677V22.677V27.677C294.92 27.677 294.855 27.6646 294.84 27.6612C294.827 27.6582 294.86 27.6644 294.945 27.6994L296.849 23.076ZM324.242 23.931L328.501 26.5515V26.5515L324.242 23.931ZM323.786 26.211H318.786V31.211H323.786V26.211ZM327.89 26.211V31.211H332.89V26.211H327.89ZM315.578 17.775L311.962 14.3226L311.96 14.3239L315.578 17.775ZM335.87 16.863L332.335 20.3985L332.352 20.416L332.37 20.4334L335.87 16.863ZM338.321 31.398V36.398H342.816L343.293 31.9283L338.321 31.398ZM324.014 31.398V26.398H318.63L319.028 31.7674L324.014 31.398ZM336.44 33.279L341.401 32.6543L340.749 27.4711L335.599 28.3503L336.44 33.279ZM337.409 40.974L338.686 45.8082L342.917 44.6907L342.37 40.3493L337.409 40.974ZM315.635 38.808L312.019 42.2604L312.032 42.2746L312.046 42.2887L315.635 38.808ZM325.895 23.19V18.19C324.087 18.19 321.523 18.8104 319.984 21.3105L324.242 23.931L328.501 26.5515C328.104 27.1957 327.53 27.6686 326.929 27.9378C326.39 28.1795 325.986 28.19 325.895 28.19V23.19ZM324.242 23.931L319.984 21.3105C318.95 22.9908 318.786 24.8778 318.786 26.211H323.786H328.786C328.786 25.9284 328.809 25.8249 328.803 25.8521C328.8 25.871 328.784 25.9453 328.742 26.0601C328.7 26.1751 328.626 26.3476 328.501 26.5515L324.242 23.931ZM323.786 26.211V31.211H327.89V26.211V21.211H323.786V26.211ZM327.89 26.211H332.89V25.299H327.89H322.89V26.211H327.89ZM327.89 25.299H332.89C332.89 23.8924 332.563 21.9081 331.024 20.2812C329.436 18.6023 327.404 18.19 325.895 18.19V23.19V28.19C325.717 28.19 324.683 28.1292 323.759 27.1532C322.885 26.2294 322.89 25.2996 322.89 25.299H327.89ZM312.044 28.263H317.044C317.044 24.5971 317.985 22.4961 319.197 21.2261L315.578 17.775L311.96 14.3239C308.46 17.9939 307.044 22.8849 307.044 28.263H312.044ZM315.578 17.775L319.195 21.2274C320.367 19.9999 322.37 19.013 326.066 19.013V14.013V9.013C320.567 9.013 315.578 10.5341 311.962 14.3226L315.578 17.775ZM326.066 14.013V19.013C330.272 19.013 331.858 19.9212 332.335 20.3985L335.87 16.863L339.406 13.3275C336.083 10.0048 331.133 9.013 326.066 9.013V14.013ZM335.87 16.863L332.37 20.4334C333.083 21.1326 333.777 22.3992 333.777 25.014H338.777H343.777C343.777 20.5608 342.534 16.3934 339.371 13.2926L335.87 16.863ZM338.777 25.014H333.777C333.777 26.1423 333.65 28.0526 333.35 30.8677L338.321 31.398L343.293 31.9283C343.601 29.0434 343.777 26.6978 343.777 25.014H338.777ZM338.321 31.398V26.398H324.014V31.398V36.398H338.321V31.398ZM324.014 31.398L319.028 31.7674C319.176 33.7694 319.946 35.9749 321.903 37.5763C323.751 39.0883 325.954 39.476 327.776 39.476V34.476V29.476C327.243 29.476 327.641 29.3507 328.235 29.8367C328.54 30.0858 328.756 30.3884 328.883 30.6672C329 30.9237 329.004 31.0745 329.001 31.0286L324.014 31.398ZM327.776 34.476V39.476C329.403 39.476 332.786 38.9753 337.282 38.2077L336.44 33.279L335.599 28.3503C333.286 28.7452 331.454 29.0346 330.085 29.2238C329.4 29.3184 328.856 29.3845 328.44 29.426C328.234 29.4467 328.073 29.4599 327.952 29.4676C327.826 29.4757 327.774 29.476 327.776 29.476V34.476ZM336.44 33.279L331.48 33.9037L332.449 41.5987L337.409 40.974L342.37 40.3493L341.401 32.6543L336.44 33.279ZM337.409 40.974L336.133 36.1398C332.444 37.1141 329.115 37.57 326.123 37.57V42.57V47.57C330.123 47.57 334.319 46.9619 338.686 45.8082L337.409 40.974ZM326.123 42.57V37.57C322.484 37.57 320.452 36.5925 319.225 35.3273L315.635 38.808L312.046 42.2887C315.683 46.0395 320.643 47.57 326.123 47.57V42.57ZM315.635 38.808L319.252 35.3556C317.991 34.0341 317.044 31.9036 317.044 28.263H312.044H307.044C307.044 33.6664 308.492 38.5659 312.019 42.2604L315.635 38.808ZM354.03 21.708V26.708H358.149L358.938 22.6656L354.03 21.708ZM355.398 14.697V9.697H351.279L350.491 13.7394L355.398 14.697ZM367.596 14.697L372.233 16.5671L375.004 9.697H367.596V14.697ZM362.01 28.548L357.373 26.6779L356.596 28.605L357.413 30.5152L362.01 28.548ZM367.767 42V47H375.346L372.364 40.0328L367.767 42ZM355.17 42L350.303 43.1452L351.21 47H355.17V42ZM353.574 35.217L358.441 34.0718L357.534 30.217H353.574V35.217ZM353.232 35.217V30.217H349.207L348.347 34.1497L353.232 35.217ZM351.75 42V47H355.776L356.635 43.0673L351.75 42ZM339.495 42L334.907 40.0136L331.882 47H339.495V42ZM345.195 28.833L349.784 30.8194L350.627 28.8704L349.811 26.9099L345.195 28.833ZM342.744 22.734L338.085 24.5486L338.093 24.5698L338.102 24.591L342.744 22.734ZM339.552 14.697V9.697H332.077L334.931 16.6058L339.552 14.697ZM352.491 14.697L357.42 13.8555L356.71 9.697H352.491V14.697ZM353.688 21.708L348.759 22.5495L349.469 26.708H353.688V21.708ZM354.03 21.708L358.938 22.6656L360.306 15.6545L355.398 14.697L350.491 13.7394L349.123 20.7504L354.03 21.708ZM355.398 14.697V19.697H367.596V14.697V9.697H355.398V14.697ZM367.596 14.697L362.959 12.8269L357.373 26.6779L362.01 28.548L366.647 30.4181L372.233 16.5671L367.596 14.697ZM362.01 28.548L357.413 30.5152L363.17 43.9672L367.767 42L372.364 40.0328L366.607 26.5808L362.01 28.548ZM367.767 42V37H355.17V42V47H367.767V42ZM355.17 42L360.037 40.8548L358.441 34.0718L353.574 35.217L348.707 36.3622L350.303 43.1452L355.17 42ZM353.574 35.217V30.217H353.232V35.217V40.217H353.574V35.217ZM353.232 35.217L348.347 34.1497L346.865 40.9327L351.75 42L356.635 43.0673L358.117 36.2843L353.232 35.217ZM351.75 42V37H339.495V42V47H351.75V42ZM339.495 42L344.084 43.9864L349.784 30.8194L345.195 28.833L340.607 26.8466L334.907 40.0136L339.495 42ZM345.195 28.833L349.811 26.9099C349.638 26.4968 348.841 24.5124 347.387 20.877L342.744 22.734L338.102 24.591C339.536 28.1756 340.372 30.2572 340.58 30.7561L345.195 28.833ZM342.744 22.734L347.403 20.9194C345.995 17.3033 344.916 14.5853 344.173 12.7882L339.552 14.697L334.931 16.6058C335.633 18.3047 336.681 20.9447 338.085 24.5486L342.744 22.734ZM339.552 14.697V19.697H352.491V14.697V9.697H339.552V14.697ZM352.491 14.697L347.562 15.5385L348.759 22.5495L353.688 21.708L358.617 20.8665L357.42 13.8555L352.491 14.697ZM353.688 21.708V26.708H354.03V21.708V16.708H353.688V21.708Z" fill="#004EC3" mask="url(#path-1-outside-1_6_30)"/>
</svg>
